# xmcd
#
# Track frame offsets:
#	150
#	18829
#	36941
#	46026
#	57476
#	79621
#	87949
#	97378
#	101662
#	111022
#	120636
#	140547
#
# Disc length: 2068 seconds
#
# Revision: 0
# Processed by: cddbd v1.5.2PL0 Copyright (c) Steve Scherf et al.
# Submitted via: dBpowerAMP V4.0
#
DISCID=9a08120c
DTITLE=Minnie Pearl - Live From Grinder's Switch
DYEAR=2007
DGENRE=Country
TTITLE0=First Ole Opery
TTITLE1=Giddy-Up-Go Answer (Song)
TTITLE2=California Girls
TTITLE3=Y'all Come (Song)
TTITLE4=Gossip From Grinder's Switch
TTITLE5=Alabam (Duet with Red Sovine)
TTITLE6=Tunnel Of Love
TTITLE7=Columbus Stockade Blues (Song)
TTITLE8=Old Maid From Grinder's Switch
TTITLE9=Nobody's Business (Duet with Red Sovine)
TTITLE10=Uncle Nabob
TTITLE11=On Top Of Old Smokey (Song)
EXTD=
EXTT0=
EXTT1=
EXTT2=
EXTT3=
EXTT4=
EXTT5=
EXTT6=
EXTT7=
EXTT8=
EXTT9=
EXTT10=
EXTT11=
PLAYORDER=
